<svg xmlns="http://www.w3.org/2000/svg" viewBox="0 0 207.63 200.79"><defs><style>.cls-1{fill:#fff;}</style></defs><g id="Capa_2" data-name="Capa 2"><g id="Capa_1-2" data-name="Capa 1"><path class="cls-1" d="M124.18,200.78a92.31,92.31,0,0,1-10.12-1.34c-8.27-1.93-16.32-.57-24.5.71-12,1.87-23-.13-31.68-9.65-6.43-7.07-13.59-13.14-22.53-16.93-13.25-5.63-20.47-15.84-21.8-30.09A60,60,0,0,0,5.3,118.63C-1.5,106.92-1.92,95,5,83.29c5.77-9.72,7.83-20.35,9.59-31.24,1.55-9.62,6.75-17.35,15.51-21.57A102,102,0,0,0,60,8.87c7.47-7.79,17.48-10.38,28-8,11,2.43,21.7,1.9,32.63-.21,10-1.93,19.37.71,26.42,8a107.61,107.61,0,0,0,30,22c10,5,15.22,14.11,16.41,25.11A74.73,74.73,0,0,0,203,84.57c6.05,10.75,6.22,21.87,0,32.5-5.73,9.81-8.25,20.38-9.86,31.44-1.47,10.07-7.08,17.59-16,22.57a14.46,14.46,0,0,1-1.5.81c-10.67,4.3-19.5,11.08-27.1,19.66a27,27,0,0,1-15.08,8.55C130.85,200.65,128.06,200.52,124.18,200.78Zm23.55-37.45c1.76-1.52,2.84-2.55,4-3.46,3.26-2.51,4.86-5.36,2.37-9.36a15.34,15.34,0,0,1-1-3.24,160.81,160.81,0,0,1-8-57.35c.11-2.77,0-5.54,0-8.56a42.63,42.63,0,0,1-5.17,3.71c-3.7,1.92-4.25,4.81-4,8.69.54,7.64.57,15.33.72,23a3.16,3.16,0,0,1-.9,2.41,67.86,67.86,0,0,1-6.3,3c-.77-10.09-1.51-19.67-2.28-29.61-2.61,1-4.75,2-7,2.74-1.87.59-2.07,1.58-1.77,3.39a218.54,218.54,0,0,1,2.25,47.88c-.56,9.52-.69,19.06-1,29.17,3-1.49,5.4-2.77,7.86-3.88,1.69-.75,2.27-1.83,2.28-3.73,0-10.7.16-21.41.36-32.12a2.91,2.91,0,0,1,1.23-2.15c2.23-1.22,4.6-2.18,6.65-3.12C141.19,141.47,144.35,152.05,147.73,163.33ZM83.36,54a28.68,28.68,0,0,0,57.36-.57A28.68,28.68,0,1,0,83.36,54Zm60.39-7.21c3.53,3.91,6.89,7.5,10,11.27a4.43,4.43,0,0,1,.86,3.49c-7.92,28.9-4.66,56.85,7,84.11.38.89.94,1.71,1.58,2.86,2.36-3,4.52-5.49,6.41-8.2a3.57,3.57,0,0,0,.13-3c-8.56-17.68-10.58-36.41-8.9-55.7.28-3.17,1.12-6.3,1.7-9.44l1-.09L169,83.23l9-4.86c-5.87-15.86-14.67-29.32-28.66-39.48Zm-35.63,102.5c0,4.64,0,8.89,0,13.13,0,2-.63,4.15-2.78,4.41-1.76.21-4.37-.12-5.36-1.28a20.76,20.76,0,0,1-4.55-8.26c-2.48-10.7-1-21.36,2.13-31.68,2.63-8.69,6.77-16.56,16-20.18.4-.15,1-.54,1-.82.07-3.89,0-7.77,0-11.91-10,3.73-19.26,13.38-23.3,23.53a84.73,84.73,0,0,0-5.82,29.39c-.2,7.68-.14,15.39,3.5,22.51,3,5.76,7.51,9.09,14.12,8.46,3.25-.31,6.4-1.5,9.61-2.24,2.48-.57,3.07-2.09,3-4.55-.27-9.28-.31-18.57-.44-27.86,0-.9-.08-1.79-.13-2.85l-15,1.84v8.77ZM54.74,111.74a73.09,73.09,0,0,0,6.51-3.9A3.86,3.86,0,0,0,62.67,105c-.4-6.71-.88-13.42-1.63-20.1-.27-2.41.52-3.45,2.55-4.53C76.08,73.64,82.45,57,77.72,43.94c-3-8.38-9.8-11.6-17.8-7.84-3.69,1.73-6.77,4.73-10.17,7.08-2.09,1.44-2.3,3.33-2,5.66,1.54,13.17,3,26.36,4.43,39.53C53,96,53.84,103.58,54.74,111.74Zm20.83,50.34c-5.3-3.66-10.16-7.08-15.11-10.39-1.66-1.11-1.76-2.11-1-3.95,5.52-14,11.11-27.95,16.2-42.09,2.7-7.52,4.44-15.38,6.78-23.64-3,.87-5.15,1.79-7.43,2.11-3.73.53-5.31,2.49-5.32,6.17A25.22,25.22,0,0,1,68.82,95c-3.6,17.82-11,34.15-19.55,50-1.36,2.53-3.87,5.43-3.42,7.66s3.77,4.25,6,6.12a86.66,86.66,0,0,0,18.9,11.76ZM41.71,57.75c-.68.32-1,.46-1.35.65-9.86,5.78-13.44,18.46-8.45,30,1.7,3.91,3.5,7.76,5.17,11.68,4.67,10.93,3.2,20.86-4.88,29.72-.45.5-1.07,1.44-.88,1.84,1.66,3.64,3.49,7.2,5.57,11.38,1.15-1.39,2-2.32,2.72-3.29a28.52,28.52,0,0,0,1.87-2.5c8.94-14.06,10.3-28.7,3.6-44.09a55.59,55.59,0,0,1-3.47-11c-.85-4.17-.41-8.3,2.56-11.8A2.84,2.84,0,0,0,44.63,68C43.76,64.64,42.74,61.3,41.71,57.75ZM74.48,153A412.93,412.93,0,0,0,94.76,94.28l-7.59-3.94c-6,17.67-11.79,35.05-17.72,52.4C67,149.86,66.92,149.83,74.48,153Z"/><path class="cls-1" d="M130.73,53.2c0,10.41-7.9,18.61-18.07,18.69-10.79.08-19-8.14-19-19.06,0-9.57,8.78-18.29,18.43-18.32C122.87,34.48,130.7,42.35,130.73,53.2Z"/><path class="cls-1" d="M59,71.55c-.71-7.12-1.51-14.24-2.07-21.38-.2-2.59,2.31-2.94,4.06-3.63,2-.8,4.15-.85,5.65,1.14,4.86,6.46.67,20.93-6.89,23.86A2.83,2.83,0,0,1,59,71.55Z"/></g></g></svg>